<svg xmlns="http://www.w3.org/2000/svg" xmlns:xlink="http://www.w3.org/1999/xlink" width="5000" zoomAndPan="magnify" viewBox="0 0 3750 3749.999967" height="5000" preserveAspectRatio="xMidYMid meet" version="1.0"><path fill="#ffffff" d="M 3262.710938 1465.371094 L 2796.382812 1122.347656 L 2796.382812 713.175781 C 2796.382812 649.023438 2744.316406 597.140625 2680.257812 597.140625 L 2491.527344 597.140625 C 2427.375 597.140625 2375.398438 649.117188 2375.398438 713.175781 L 2375.398438 812.585938 L 2019.835938 551.070312 C 1942.691406 494.1875 1816.386719 494.1875 1739.242188 551.070312 L 496.367188 1465.371094 C 419.21875 1522.164062 402.589844 1631.839844 459.382812 1709.074219 L 493.730469 1755.691406 C 550.429688 1832.925781 660.105469 1849.648438 737.164062 1792.855469 L 1739.242188 1055.378906 C 1816.386719 998.589844 1942.691406 998.589844 2019.835938 1055.378906 L 3021.824219 1792.855469 C 3098.96875 1849.648438 3208.554688 1832.835938 3265.257812 1755.691406 L 3299.695312 1709.074219 C 3356.394531 1631.839844 3339.765625 1522.164062 3262.710938 1465.371094 Z M 3262.710938 1465.371094 " fill-opacity="1" fill-rule="nonzero"/><path fill="#ffffff" d="M 2890.886719 1857.007812 L 2019.5625 1213.035156 C 1942.507812 1156.0625 1816.566406 1156.0625 1739.511719 1213.035156 L 868.191406 1857.007812 C 791.136719 1913.980469 728.074219 1997.304688 728.074219 2042.464844 L 728.074219 2976.121094 C 728.074219 3127.6875 858.015625 3250.628906 1018.394531 3250.628906 L 1550.511719 3250.628906 L 1550.511719 2424.742188 C 1550.511719 2360.953125 1602.757812 2308.796875 1666.546875 2308.796875 L 2092.347656 2308.796875 C 2156.136719 2308.796875 2208.386719 2360.953125 2208.386719 2424.742188 L 2208.386719 3250.628906 L 2740.589844 3250.628906 C 2900.878906 3250.628906 3030.730469 3127.6875 3030.730469 2976.121094 L 3030.730469 2042.464844 C 3030.820312 1997.304688 2967.941406 1913.980469 2890.886719 1857.007812 Z M 2890.886719 1857.007812 " fill-opacity="1" fill-rule="nonzero"/></svg>