<svg xmlns="http://www.w3.org/2000/svg" xmlns:xlink="http://www.w3.org/1999/xlink" width="5000" zoomAndPan="magnify" viewBox="0 0 3750 3749.999967" height="5000" preserveAspectRatio="xMidYMid meet" version="1.0"><path fill="#ffffff" d="M 2303.253906 2568.734375 L 3038.042969 3303.277344 C 3110.792969 3376.007812 3228.9375 3375.984375 3301.6875 3303.234375 C 3374.417969 3230.457031 3374.394531 3112.316406 3301.644531 3039.5625 L 2567.347656 2305.535156 C 2715.066406 2104.621094 2802.382812 1856.5 2802.382812 1588.132812 C 2802.382812 918.578125 2258.804688 375 1589.25 375 C 919.699219 375 376.117188 918.578125 376.117188 1588.132812 C 376.117188 2257.683594 919.699219 2801.265625 1589.25 2801.265625 C 1856.074219 2801.265625 2102.875 2714.957031 2303.253906 2568.734375 Z M 1589.25 747.863281 C 2053.007812 747.863281 2429.542969 1124.375 2429.542969 1588.132812 C 2429.542969 2051.890625 2053.007812 2428.421875 1589.25 2428.421875 C 1125.492188 2428.421875 748.980469 2051.890625 748.980469 1588.132812 C 748.980469 1124.375 1125.492188 747.863281 1589.25 747.863281 Z M 1589.25 747.863281 " fill-opacity="1" fill-rule="evenodd"/></svg>