<svg xmlns="http://www.w3.org/2000/svg" xmlns:xlink="http://www.w3.org/1999/xlink" width="5000" zoomAndPan="magnify" viewBox="0 0 3750 3749.999967" height="5000" preserveAspectRatio="xMidYMid meet" version="1.0"><path fill="#ffffff" d="M 2833.097656 618.578125 L 2687.261719 618.578125 L 2687.261719 400.800781 C 2687.261719 348.410156 2644.644531 306.183594 2592.644531 306.183594 C 2540.253906 306.183594 2498.027344 348.800781 2498.027344 400.800781 L 2498.027344 618.96875 L 1197.625 618.96875 L 1197.625 400.800781 C 1197.625 348.410156 1155.007812 306.183594 1103.007812 306.183594 C 1050.617188 306.183594 1008.390625 348.800781 1008.390625 400.800781 L 1008.390625 618.96875 L 916.507812 618.96875 C 617.410156 618.96875 375 861.375 375 1160.476562 L 375 2902.296875 C 375 3201.398438 617.410156 3443.808594 916.507812 3443.808594 L 2833.097656 3443.808594 C 3132.199219 3443.808594 3374.609375 3201.398438 3374.609375 2902.296875 L 3374.609375 1160.476562 C 3375 861.375 3132.199219 618.578125 2833.097656 618.578125 Z M 2497.636719 718.667969 L 2497.636719 915.332031 C 2497.636719 967.722656 2540.253906 1009.949219 2592.253906 1009.949219 C 2644.648438 1009.949219 2686.871094 967.332031 2686.871094 915.332031 L 2686.871094 726.097656 C 2747.476562 761.285156 2788.527344 826.96875 2788.527344 902.039062 C 2788.527344 1014.25 2697.429688 1105.347656 2585.21875 1105.347656 C 2473.003906 1105.347656 2381.90625 1014.25 2381.90625 902.039062 C 2382.6875 821.105469 2429.605469 751.511719 2497.636719 718.667969 Z M 1008 722.1875 L 1008 915.332031 C 1008 967.722656 1050.617188 1009.949219 1102.617188 1009.949219 C 1155.007812 1009.949219 1197.234375 967.332031 1197.234375 915.332031 L 1197.234375 722.1875 C 1261.746094 756.203125 1305.535156 823.839844 1305.535156 901.648438 C 1305.535156 1013.859375 1214.4375 1104.957031 1102.226562 1104.957031 C 990.011719 1104.957031 898.914062 1013.859375 898.914062 901.648438 C 899.695312 823.839844 943.878906 756.203125 1008 722.1875 Z M 3185.375 2901.90625 C 3185.375 3096.226562 3027.417969 3253.789062 2833.492188 3253.789062 L 916.507812 3253.789062 C 722.191406 3253.789062 564.625 3095.835938 564.625 2901.90625 L 564.625 1459.1875 L 3185.375 1459.1875 Z M 3185.375 2901.90625 " fill-opacity="1" fill-rule="nonzero"/><path fill="#ffffff" d="M 1200.363281 2005.386719 L 938.011719 2005.386719 C 916.898438 2005.386719 899.695312 1988.183594 899.695312 1967.070312 L 899.695312 1704.722656 C 899.695312 1683.609375 916.898438 1666.40625 938.011719 1666.40625 L 1200.363281 1666.40625 C 1221.472656 1666.40625 1238.675781 1683.609375 1238.675781 1704.722656 L 1238.675781 1967.070312 C 1238.285156 1988.183594 1221.472656 2005.386719 1200.363281 2005.386719 Z M 1200.363281 2005.386719 " fill-opacity="1" fill-rule="nonzero"/><path fill="#ffffff" d="M 1200.363281 2543.378906 L 938.011719 2543.378906 C 916.898438 2543.378906 899.695312 2526.175781 899.695312 2505.0625 L 899.695312 2242.714844 C 899.695312 2221.601562 916.898438 2204.398438 938.011719 2204.398438 L 1200.363281 2204.398438 C 1221.472656 2204.398438 1238.675781 2221.601562 1238.675781 2242.714844 L 1238.675781 2505.0625 C 1238.285156 2526.566406 1221.472656 2543.378906 1200.363281 2543.378906 Z M 1200.363281 2543.378906 " fill-opacity="1" fill-rule="nonzero"/><path fill="#ffffff" d="M 1200.363281 3081.757812 L 938.011719 3081.757812 C 916.898438 3081.757812 899.695312 3064.554688 899.695312 3043.441406 L 899.695312 2781.09375 C 899.695312 2759.980469 916.898438 2742.777344 938.011719 2742.777344 L 1200.363281 2742.777344 C 1221.472656 2742.777344 1238.675781 2759.980469 1238.675781 2781.09375 L 1238.675781 3043.832031 C 1238.285156 3064.554688 1221.472656 3081.757812 1200.363281 3081.757812 Z M 1200.363281 3081.757812 " fill-opacity="1" fill-rule="nonzero"/><path fill="#ffffff" d="M 1738.351562 2005.386719 L 1476.003906 2005.386719 C 1454.890625 2005.386719 1437.6875 1988.183594 1437.6875 1967.070312 L 1437.6875 1704.722656 C 1437.6875 1683.609375 1454.890625 1666.40625 1476.003906 1666.40625 L 1738.351562 1666.40625 C 1759.464844 1666.40625 1776.667969 1683.609375 1776.667969 1704.722656 L 1776.667969 1967.070312 C 1776.667969 1988.183594 1759.464844 2005.386719 1738.351562 2005.386719 Z M 1738.351562 2005.386719 " fill-opacity="1" fill-rule="nonzero"/><path fill="#ffffff" d="M 1738.351562 2543.378906 L 1476.003906 2543.378906 C 1454.890625 2543.378906 1437.6875 2526.175781 1437.6875 2505.0625 L 1437.6875 2242.714844 C 1437.6875 2221.601562 1454.890625 2204.398438 1476.003906 2204.398438 L 1738.351562 2204.398438 C 1759.464844 2204.398438 1776.667969 2221.601562 1776.667969 2242.714844 L 1776.667969 2505.0625 C 1776.667969 2526.566406 1759.464844 2543.378906 1738.351562 2543.378906 Z M 1738.351562 2543.378906 " fill-opacity="1" fill-rule="nonzero"/><path fill="#ffffff" d="M 1738.351562 3081.757812 L 1476.003906 3081.757812 C 1454.890625 3081.757812 1437.6875 3064.554688 1437.6875 3043.441406 L 1437.6875 2781.09375 C 1437.6875 2759.980469 1454.890625 2742.777344 1476.003906 2742.777344 L 1738.351562 2742.777344 C 1759.464844 2742.777344 1776.667969 2759.980469 1776.667969 2781.09375 L 1776.667969 3043.832031 C 1776.667969 3064.554688 1759.464844 3081.757812 1738.351562 3081.757812 Z M 1738.351562 3081.757812 " fill-opacity="1" fill-rule="nonzero"/><path fill="#ffffff" d="M 2276.734375 2005.386719 L 2014.382812 2005.386719 C 1993.273438 2005.386719 1976.070312 1988.183594 1976.070312 1967.070312 L 1976.070312 1704.722656 C 1976.070312 1683.609375 1993.273438 1666.40625 2014.382812 1666.40625 L 2276.734375 1666.40625 C 2297.847656 1666.40625 2315.050781 1683.609375 2315.050781 1704.722656 L 2315.050781 1967.070312 C 2314.660156 1988.183594 2297.847656 2005.386719 2276.734375 2005.386719 Z M 2276.734375 2005.386719 " fill-opacity="1" fill-rule="nonzero"/><path fill="#ffffff" d="M 2276.734375 2543.378906 L 2014.382812 2543.378906 C 1993.273438 2543.378906 1976.070312 2526.175781 1976.070312 2505.0625 L 1976.070312 2242.714844 C 1976.070312 2221.601562 1993.273438 2204.398438 2014.382812 2204.398438 L 2276.734375 2204.398438 C 2297.847656 2204.398438 2315.050781 2221.601562 2315.050781 2242.714844 L 2315.050781 2505.0625 C 2314.660156 2526.566406 2297.847656 2543.378906 2276.734375 2543.378906 Z M 2276.734375 2543.378906 " fill-opacity="1" fill-rule="nonzero"/><path fill="#ffffff" d="M 2276.734375 3081.757812 L 2014.382812 3081.757812 C 1993.273438 3081.757812 1976.070312 3064.554688 1976.070312 3043.441406 L 1976.070312 2781.09375 C 1976.070312 2759.980469 1993.273438 2742.777344 2014.382812 2742.777344 L 2276.734375 2742.777344 C 2297.847656 2742.777344 2315.050781 2759.980469 2315.050781 2781.09375 L 2315.050781 3043.832031 C 2314.660156 3064.554688 2297.847656 3081.757812 2276.734375 3081.757812 Z M 2276.734375 3081.757812 " fill-opacity="1" fill-rule="nonzero"/><path fill="#ffffff" d="M 2815.113281 2005.386719 L 2552.765625 2005.386719 C 2531.652344 2005.386719 2514.449219 1988.183594 2514.449219 1967.070312 L 2514.449219 1704.722656 C 2514.449219 1683.609375 2531.652344 1666.40625 2552.765625 1666.40625 L 2815.113281 1666.40625 C 2836.226562 1666.40625 2853.429688 1683.609375 2853.429688 1704.722656 L 2853.429688 1967.070312 C 2853.039062 1988.183594 2835.835938 2005.386719 2815.113281 2005.386719 Z M 2815.113281 2005.386719 " fill-opacity="1" fill-rule="nonzero"/><path fill="#ffffff" d="M 2815.113281 2543.378906 L 2552.765625 2543.378906 C 2531.652344 2543.378906 2514.449219 2526.175781 2514.449219 2505.0625 L 2514.449219 2242.714844 C 2514.449219 2221.601562 2531.652344 2204.398438 2552.765625 2204.398438 L 2815.113281 2204.398438 C 2836.226562 2204.398438 2853.429688 2221.601562 2853.429688 2242.714844 L 2853.429688 2505.0625 C 2853.039062 2526.566406 2835.835938 2543.378906 2815.113281 2543.378906 Z M 2815.113281 2543.378906 " fill-opacity="1" fill-rule="nonzero"/></svg>