<svg xmlns="http://www.w3.org/2000/svg" xmlns:xlink="http://www.w3.org/1999/xlink" width="5000" zoomAndPan="magnify" viewBox="0 0 3750 3749.999967" height="5000" preserveAspectRatio="xMidYMid meet" version="1.0"><defs><clipPath id="bb6e1be44d"><path d="M 304 547.484375 L 3445.726562 547.484375 L 3445.726562 3202.484375 L 304 3202.484375 Z M 304 547.484375 " clip-rule="nonzero"/></clipPath></defs><g clip-path="url(#bb6e1be44d)"><path fill="#ffffff" d="M 1409.304688 2045.445312 L 1409.304688 2840.273438 C 1409.304688 2881.050781 1376.257812 2914.152344 1335.425781 2914.152344 C 1294.648438 2914.152344 1261.542969 2881.105469 1261.542969 2840.273438 L 1261.542969 2045.445312 C 1261.542969 2004.667969 1294.589844 1971.5625 1335.425781 1971.5625 C 1376.203125 1971.5625 1409.304688 2004.613281 1409.304688 2045.445312 Z M 2684.667969 2151.703125 C 2643.890625 2151.703125 2610.789062 2184.75 2610.789062 2225.585938 L 2610.789062 2660.132812 C 2610.789062 2700.910156 2643.835938 2734.015625 2684.667969 2734.015625 C 2725.503906 2734.015625 2758.550781 2700.96875 2758.550781 2660.132812 L 2758.550781 2225.582031 C 2758.550781 2184.75 2725.445312 2151.703125 2684.667969 2151.703125 Z M 1605.296875 2076.421875 C 1564.519531 2076.421875 1531.414062 2109.46875 1531.414062 2150.300781 L 1531.414062 2735.359375 C 1531.414062 2776.136719 1564.460938 2809.242188 1605.296875 2809.242188 C 1646.128906 2809.242188 1679.175781 2776.191406 1679.175781 2735.359375 L 1679.175781 2150.300781 C 1679.121094 2109.523438 1646.074219 2076.421875 1605.296875 2076.421875 Z M 1065.554688 2151.703125 C 1024.773438 2151.703125 991.671875 2184.75 991.671875 2225.585938 L 991.671875 2660.132812 C 991.671875 2700.910156 1024.71875 2734.015625 1065.554688 2734.015625 C 1106.332031 2734.015625 1139.433594 2700.96875 1139.433594 2660.132812 L 1139.433594 2225.582031 C 1139.433594 2184.75 1106.386719 2151.703125 1065.554688 2151.703125 Z M 1875.109375 1683.207031 C 1834.332031 1683.207031 1801.230469 1716.257812 1801.230469 1757.089844 L 1801.230469 3128.683594 C 1801.230469 3169.460938 1834.277344 3202.566406 1875.109375 3202.566406 C 1915.886719 3202.566406 1948.992188 3169.519531 1948.992188 3128.683594 L 1948.992188 1757.089844 C 1948.992188 1716.257812 1915.945312 1683.207031 1875.109375 1683.207031 Z M 2144.980469 2105.4375 C 2104.203125 2105.4375 2071.101562 2138.484375 2071.101562 2179.316406 L 2071.101562 2706.402344 C 2071.101562 2747.179688 2104.148438 2780.28125 2144.980469 2780.28125 C 2185.761719 2780.28125 2218.863281 2747.234375 2218.863281 2706.402344 L 2218.863281 2179.316406 C 2218.863281 2138.484375 2185.761719 2105.4375 2144.980469 2105.4375 Z M 2414.796875 2042.925781 C 2374.019531 2042.925781 2340.917969 2075.972656 2340.917969 2116.804688 L 2340.917969 2840.273438 C 2340.917969 2881.050781 2373.964844 2914.152344 2414.796875 2914.152344 C 2455.574219 2914.152344 2488.679688 2881.105469 2488.679688 2840.273438 L 2488.679688 2116.804688 C 2488.679688 2076.027344 2455.632812 2042.925781 2414.796875 2042.925781 Z M 3151.539062 1848.449219 L 3151.539062 1823.859375 C 3151.539062 1120.050781 2578.917969 547.484375 1875.109375 547.484375 C 1171.304688 547.484375 598.738281 1120.050781 598.738281 1823.859375 L 598.738281 1848.449219 C 434.734375 1859.480469 304.671875 1996.320312 304.671875 2163.074219 L 304.671875 2605.578125 C 304.671875 2779.496094 446.160156 2920.988281 620.082031 2920.988281 L 671.445312 2920.988281 C 711.605469 2920.988281 744.207031 2888.445312 744.207031 2848.226562 L 744.207031 1823.914062 C 744.207031 1200.320312 1251.515625 693.007812 1875.109375 693.007812 C 2498.707031 693.007812 3006.015625 1200.320312 3006.015625 1823.914062 L 3006.015625 2848.28125 C 3006.015625 2888.445312 3038.558594 2921.042969 3078.777344 2921.042969 L 3130.140625 2921.042969 C 3304.0625 2921.042969 3445.550781 2779.554688 3445.550781 2605.632812 L 3445.550781 2163.128906 C 3445.550781 1996.320312 3315.488281 1859.480469 3151.539062 1848.449219 Z M 3151.539062 1848.449219 " fill-opacity="1" fill-rule="nonzero"/></g></svg>