<svg xmlns="http://www.w3.org/2000/svg" xmlns:xlink="http://www.w3.org/1999/xlink" width="5000" zoomAndPan="magnify" viewBox="0 0 3750 3749.999967" height="5000" preserveAspectRatio="xMidYMid meet" version="1.0"><defs><clipPath id="dd70341b21"><path d="M 376.097656 1072 L 3373.902344 1072 L 3373.902344 3104.769531 L 376.097656 3104.769531 Z M 376.097656 1072 " clip-rule="nonzero"/></clipPath><clipPath id="e7d8752416"><path d="M 754 645 L 1607 645 L 1607 1884 L 754 1884 Z M 754 645 " clip-rule="nonzero"/></clipPath></defs><path fill="#ffffff" d="M 2341.183594 1594.4375 L 2347.339844 1654.066406 C 2367.0625 1652.144531 2387.484375 1651.140625 2408.046875 1651.140625 C 2425.027344 1651.140625 2442.546875 1651.816406 2460.0625 1653.152344 L 2464.816406 1593.40625 C 2445.707031 1591.957031 2426.621094 1591.230469 2408.046875 1591.230469 C 2385.445312 1591.230469 2362.964844 1592.308594 2341.183594 1594.4375 " fill-opacity="1" fill-rule="nonzero"/><path fill="#ffffff" d="M 2105.175781 1668.632812 L 2136.207031 1720.347656 C 2168.339844 1701.960938 2202.558594 1687.066406 2237.875 1676.035156 L 2219.183594 1618.960938 C 2179.582031 1631.324219 2141.21875 1648.023438 2105.175781 1668.632812 " fill-opacity="1" fill-rule="nonzero"/><path fill="#ffffff" d="M 1284.878906 2486.824219 C 1325.347656 2478.789062 1365.183594 2467.503906 1403.265625 2453.285156 L 1381.320312 2397.3125 C 1346.378906 2410.355469 1309.820312 2420.707031 1272.628906 2428.109375 L 1284.878906 2486.824219 " fill-opacity="1" fill-rule="nonzero"/><path fill="#ffffff" d="M 1920.996094 1828.851562 L 1969.242188 1865.878906 C 1993.367188 1835.949219 2019.222656 1808.734375 2046.109375 1785.078125 L 2004.984375 1740.582031 C 1975.519531 1766.53125 1947.273438 1796.226562 1920.996094 1828.851562 " fill-opacity="1" fill-rule="nonzero"/><path fill="#ffffff" d="M 1045.824219 2439.210938 L 1040.367188 2498.886719 C 1067.769531 2501.273438 1095.21875 2502.492188 1121.941406 2502.492188 C 1135.617188 2502.492188 1149.367188 2502.1875 1162.832031 2501.554688 L 1159.929688 2441.691406 C 1147.421875 2442.277344 1134.636719 2442.558594 1121.941406 2442.558594 C 1097.023438 2442.558594 1071.421875 2441.433594 1045.824219 2439.210938 " fill-opacity="1" fill-rule="nonzero"/><path fill="#ffffff" d="M 1576.25 2285.949219 C 1546.574219 2309.695312 1515.285156 2331.054688 1483.246094 2349.394531 L 1514.351562 2401.082031 C 1549.105469 2381.152344 1583.019531 2358.035156 1615.152344 2332.320312 L 1576.25 2285.949219 " fill-opacity="1" fill-rule="nonzero"/><path fill="#ffffff" d="M 1731.808594 2122.964844 C 1708.714844 2153.902344 1684.265625 2183.039062 1659.132812 2209.527344 L 1704.195312 2250.253906 C 1730.941406 2222.035156 1756.9375 2191.070312 1781.433594 2158.238281 L 1731.808594 2122.964844 " fill-opacity="1" fill-rule="nonzero"/><path fill="#ffffff" d="M 802.230469 2450.265625 C 841.34375 2462.679688 880.875 2473.03125 919.707031 2481.0625 L 932.425781 2422.441406 C 895.699219 2414.828125 858.273438 2405.039062 821.222656 2393.257812 L 802.230469 2450.265625 " fill-opacity="1" fill-rule="nonzero"/><path fill="#ffffff" d="M 2790.570312 1742.851562 C 2824.671875 1757.914062 2859.636719 1774.984375 2894.464844 1793.582031 L 2923.925781 1741.003906 C 2887.742188 1721.679688 2851.394531 1703.929688 2815.867188 1688.261719 L 2790.570312 1742.851562 " fill-opacity="1" fill-rule="nonzero"/><path fill="#ffffff" d="M 2572.667969 1669.945312 C 2608.503906 1677.792969 2645.695312 1688.191406 2683.214844 1700.882812 L 2703.308594 1644.253906 C 2663.609375 1630.832031 2624.171875 1619.800781 2586.089844 1611.464844 L 2572.667969 1669.945312 " fill-opacity="1" fill-rule="nonzero"/><g clip-path="url(#dd70341b21)"><path fill="#ffffff" d="M 2605.738281 2251.964844 L 2572.902344 2254.027344 L 2548.734375 2276.34375 L 2140.234375 2653.15625 L 1760.730469 1511.179688 L 2164.523438 1166.6875 L 2732.300781 1187.929688 L 3031.144531 1803.019531 C 3030 1802.292969 3028.828125 1801.566406 3027.679688 1800.839844 L 2994.796875 1851.453125 C 3024.425781 1869.792969 3053.980469 1889.277344 3082.835938 1909.394531 L 3230.054688 2212.40625 Z M 2791.390625 1097.316406 L 2131.851562 1072.65625 L 1691.101562 1448.667969 L 1582.199219 1429.488281 C 1567.980469 1457.195312 1552.40625 1485.882812 1535.546875 1515.441406 L 1672.4375 1539.5625 L 1820.3125 1984.503906 C 1812 1999.609375 1803.472656 2014.433594 1794.878906 2028.769531 L 1844.460938 2057.199219 L 2053.976562 2687.675781 L 1420.011719 2658.707031 L 1392.609375 2657.441406 L 1368.933594 2671.304688 L 865.605469 2965.769531 L 690.796875 2403.425781 L 713.375 2353.164062 C 696.746094 2346.042969 681.847656 2339.207031 668.921875 2333 L 485.5625 1743.15625 L 828.53125 1521.671875 C 812.464844 1493.683594 797.546875 1466.492188 783.820312 1440.144531 L 376.097656 1703.460938 L 811.691406 3104.769531 L 1415.773438 2751.355469 L 2134.917969 2784.238281 L 2611.617188 2344.523438 L 3373.902344 2296.230469 L 2791.390625 1097.316406 " fill-opacity="1" fill-rule="nonzero"/></g><g clip-path="url(#e7d8752416)"><path fill="#ffffff" d="M 948.070312 1044.410156 C 948.070312 916.183594 1052.03125 812.222656 1180.257812 812.222656 C 1308.484375 812.222656 1412.449219 916.183594 1412.449219 1044.410156 C 1412.449219 1172.636719 1308.484375 1276.601562 1180.257812 1276.601562 C 1052.03125 1276.601562 948.070312 1172.636719 948.070312 1044.410156 Z M 1606.34375 1071.0625 C 1606.34375 835.734375 1415.585938 644.976562 1180.257812 644.976562 C 944.929688 644.976562 754.148438 835.734375 754.148438 1071.0625 C 754.148438 1345.925781 1180.257812 1883.234375 1180.257812 1883.234375 C 1180.257812 1883.234375 1606.34375 1345.925781 1606.34375 1071.0625 " fill-opacity="1" fill-rule="nonzero"/></g></svg>