<svg xmlns="http://www.w3.org/2000/svg" xmlns:xlink="http://www.w3.org/1999/xlink" width="5000" zoomAndPan="magnify" viewBox="0 0 3750 3749.999967" height="5000" preserveAspectRatio="xMidYMid meet" version="1.0"><defs><clipPath id="a3fed1f031"><path d="M 2594 770.660156 L 2735 770.660156 L 2735 1109 L 2594 1109 Z M 2594 770.660156 " clip-rule="nonzero"/></clipPath></defs><path fill="#ffffff" d="M 2452.671875 1874.597656 C 2475.105469 1869.671875 2499.042969 1866.972656 2524.519531 1866.9375 C 2585.386719 1866.9375 2649.4375 1883.078125 2714.855469 1914.878906 C 2750.453125 1932.148438 2782.015625 1952.632812 2809.816406 1975.644531 C 2959.527344 1917.207031 3066.082031 1771.769531 3066.082031 1601.574219 C 3066.082031 1379.847656 2885.902344 1199.429688 2664.484375 1199.429688 C 2497.023438 1199.429688 2353.300781 1302.429688 2292.910156 1448.378906 C 2383.664062 1573.945312 2438.277344 1720.507812 2452.671875 1874.597656 " fill-opacity="1" fill-rule="nonzero"/><g clip-path="url(#a3fed1f031)"><path fill="#ffffff" d="M 2664.484375 1108.058594 C 2703.160156 1108.058594 2734.515625 1076.734375 2734.515625 1038.027344 L 2734.515625 840.371094 C 2734.515625 801.695312 2703.160156 770.339844 2664.484375 770.339844 C 2625.808594 770.339844 2594.449219 801.695312 2594.449219 840.371094 L 2594.449219 1038.027344 C 2594.449219 1076.734375 2625.808594 1108.058594 2664.484375 1108.058594 " fill-opacity="1" fill-rule="nonzero"/></g><path fill="#ffffff" d="M 3062.867188 1273.089844 C 3080.785156 1273.089844 3098.738281 1266.25 3112.417969 1252.570312 L 3252.175781 1112.710938 C 3279.53125 1085.351562 3279.53125 1040.964844 3252.175781 1013.644531 C 3224.820312 986.320312 3180.464844 986.289062 3153.109375 1013.679688 L 3013.316406 1153.539062 C 2985.960938 1180.898438 2985.992188 1225.25 3013.351562 1252.605469 C 3027.027344 1266.25 3044.949219 1273.089844 3062.867188 1273.089844 " fill-opacity="1" fill-rule="nonzero"/><path fill="#ffffff" d="M 3425.652344 1531.371094 L 3227.792969 1531.371094 C 3189.117188 1531.371094 3157.761719 1562.730469 3157.761719 1601.40625 C 3157.761719 1640.082031 3189.117188 1671.4375 3227.792969 1671.4375 L 3425.652344 1671.4375 C 3464.328125 1671.4375 3495.683594 1640.082031 3495.683594 1601.40625 C 3495.683594 1562.730469 3464.328125 1531.371094 3425.652344 1531.371094 " fill-opacity="1" fill-rule="nonzero"/><path fill="#ffffff" d="M 3112.382812 1950.238281 C 3084.992188 1922.949219 3040.671875 1922.949219 3013.316406 1950.308594 C 2985.960938 1977.664062 2985.992188 2022.015625 3013.351562 2049.371094 L 3153.347656 2189.234375 C 3167.027344 2202.878906 3184.910156 2209.71875 3202.863281 2209.71875 C 3220.785156 2209.71875 3238.703125 2202.878906 3252.414062 2189.199219 C 3279.738281 2161.808594 3279.703125 2117.492188 3252.347656 2090.132812 L 3112.382812 1950.238281 " fill-opacity="1" fill-rule="nonzero"/><path fill="#ffffff" d="M 2216.582031 1252.640625 C 2230.261719 1266.285156 2248.179688 1273.089844 2266.066406 1273.089844 C 2284.019531 1273.089844 2301.9375 1266.25 2315.648438 1252.539062 C 2342.9375 1225.179688 2342.9375 1180.828125 2315.546875 1153.472656 L 2175.652344 1013.816406 C 2148.226562 986.492188 2103.90625 986.5625 2076.550781 1013.882812 C 2049.261719 1041.273438 2049.261719 1085.625 2076.652344 1112.949219 L 2216.582031 1252.640625 " fill-opacity="1" fill-rule="nonzero"/><path fill="#ffffff" d="M 2719.503906 2459.828125 C 2816.175781 2427.613281 2919.859375 2148.4375 2662.226562 2023.28125 C 2609.460938 1997.667969 2563.808594 1987.445312 2524.484375 1987.476562 C 2371.695312 1987.476562 2315.066406 2141.394531 2315.066406 2141.394531 C 2425.246094 1663.984375 2087.289062 1237.902344 1665.445312 1237.902344 C 1552.875 1237.902344 1434.210938 1268.265625 1316.648438 1336.113281 C 758.363281 1658.171875 1012.40625 2141.394531 1012.40625 2141.394531 C 954.921875 2107.984375 866.523438 2080.523438 772.28125 2080.523438 C 614.296875 2080.523438 440.03125 2157.738281 368.289062 2413.285156 C 253.800781 2821.28125 622.367188 2978.785156 622.367188 2978.785156 L 2837.617188 2978.785156 C 2837.617188 2978.785156 3045.152344 2878.59375 2991.464844 2645.921875 C 2948.824219 2461.128906 2719.503906 2459.828125 2719.503906 2459.828125 " fill-opacity="1" fill-rule="nonzero"/></svg>